<?xml version="1.0" encoding="UTF-8"?>
<svg xmlns="http://www.w3.org/2000/svg" xmlns:xlink="http://www.w3.org/1999/xlink" width="2834.88" height="2834.88" viewBox="0 0 2834.88 2834.88">
<path fill-rule="evenodd" fill="rgb(0%, 0%, 0%)" fill-opacity="1" d="M 1675.351562 782.871094 C 1741.75 792.421875 1827.511719 815.191406 1915.570312 867 C 2101.601562 976.460938 2116.921875 1148.890625 2116.921875 1148.890625 L 1991.640625 1052.691406 C 1991.640625 1052.691406 2083.28125 1182.289062 2106.628906 1373.601562 C 2122.398438 1502.78125 2092.308594 1567.261719 2092.308594 1567.261719 C 2092.308594 1567.261719 2081.828125 1495.75 2046.761719 1421.730469 C 2005.171875 1333.949219 1978.210938 1312.210938 1978.210938 1312.210938 C 1978.210938 1312.210938 2031.25 1459.179688 2020.679688 1603.199219 C 2011.300781 1731.121094 1912.609375 1889.386719 1911.660156 1890.425781 C 1911.988281 1890.0625 1913.558594 1877.925781 1902.5 1760.691406 C 1891.308594 1642.109375 1856.910156 1617.699219 1856.910156 1617.699219 C 1856.910156 1617.699219 1852.988281 1756.558594 1783.628906 1850.523438 C 1714.28125 1944.488281 1550.410156 1980.136719 1550.410156 1980.136719 C 1550.410156 1980.136719 1634 1913.5625 1656.371094 1841.96875 C 1678.738281 1770.378906 1677.929688 1725.089844 1677.929688 1725.089844 C 1677.929688 1725.089844 1638.78125 1833.039062 1473.230469 1922.527344 C 1307.671875 2012.015625 1306.53125 1981.699219 1213.078125 2087.757812 C 1106.800781 2208.363281 1120.480469 2301.460938 1120.480469 2301.460938 C 1120.480469 2301.460938 1053.359375 2180.648438 1057.828125 2059.835938 C 1062.308594 1939.027344 1080.210938 1845.0625 1165.21875 1755.570312 C 1197.601562 1721.488281 1267.890625 1663.808594 1282.660156 1604.609375 C 1306.691406 1508.371094 1253.628906 1408.121094 1171.070312 1398.71875 C 1004.699219 1379.769531 906.496094 1417.089844 847.738281 1371.148438 C 788.980469 1325.199219 782.628906 1258.328125 782.628906 1258.328125 C 782.628906 1258.328125 728.070312 1243.511719 719.339844 1193.691406 C 710.605469 1143.871094 739.617188 1147.058594 799.59375 1131.128906 C 859.574219 1115.191406 916.582031 1103.71875 967.621094 1075.410156 C 1018.660156 1047.089844 1060.53125 1024.480469 1060.53125 1024.480469 C 1060.53125 1024.480469 1048.328125 970.199219 1110.269531 938.390625 C 1172.210938 906.589844 1287.910156 834.320312 1287.910156 834.320312 C 1287.910156 834.320312 1339.480469 727.730469 1440.101562 634.960938 C 1540.710938 542.191406 1553.410156 533.191406 1553.410156 533.191406 C 1553.410156 533.191406 1560.578125 610.789062 1560.421875 672.621094 C 1565.53125 668.910156 1570.761719 665.230469 1576.078125 661.601562 C 1689.171875 584.53125 1703.039062 577.480469 1703.039062 577.480469 C 1703.039062 577.480469 1696.570312 696.488281 1682.238281 755.78125 C 1679.640625 766.511719 1677.359375 775.441406 1675.351562 782.871094 "/>
<path fill="none" stroke-width="1.61" stroke-linecap="round" stroke-linejoin="round" stroke="rgb(0%, 0%, 0%)" stroke-opacity="1" stroke-miterlimit="10" d="M 16753.515625 20520.089063 C 17417.5 20424.58125 18275.117188 20196.885938 19155.703125 19678.8 C 21016.015625 18584.190625 21169.21875 16859.89375 21169.21875 16859.89375 L 19916.40625 17821.885938 C 19916.40625 17821.885938 20832.8125 16525.909375 21066.289062 14612.784375 C 21223.984375 13320.9875 20923.085938 12676.182813 20923.085938 12676.182813 C 20923.085938 12676.182813 20818.28125 13391.3 20467.617188 14131.495313 C 20051.71875 15009.307813 19782.109375 15226.690625 19782.109375 15226.690625 C 19782.109375 15226.690625 20312.5 13757.003125 20206.796875 12316.807813 C 20113.007812 11037.589063 19126.09375 9454.932813 19116.601562 9444.542188 C 19119.882812 9448.175 19135.585938 9569.542188 19025 10741.885938 C 18913.085938 11927.70625 18569.101562 12171.807813 18569.101562 12171.807813 C 18569.101562 12171.807813 18529.882812 10783.214063 17836.289062 9843.565625 C 17142.8125 8903.917188 15504.101562 8547.432813 15504.101562 8547.432813 C 15504.101562 8547.432813 16340 9213.175 16563.710938 9929.1125 C 16787.382812 10645.010938 16779.296875 11097.901563 16779.296875 11097.901563 C 16779.296875 11097.901563 16387.8125 10018.409375 14732.304688 9123.526563 C 13076.71875 8228.64375 13065.3125 8531.807813 12130.78125 7471.221875 C 11068.007812 6265.167188 11204.804688 5334.190625 11204.804688 5334.190625 C 11204.804688 5334.190625 10533.59375 6542.315625 10578.28125 7750.440625 C 10623.085938 8958.526563 10802.109375 9898.175 11652.1875 10793.096875 C 11976.015625 11133.917188 12678.90625 11710.714063 12826.601562 12302.70625 C 13066.914062 13265.089063 12536.289062 14267.589063 11710.703125 14361.6125 C 10046.992188 14551.104688 9064.960938 14177.901563 8477.382812 14637.315625 C 7889.804688 15096.807813 7826.289062 15765.51875 7826.289062 15765.51875 C 7826.289062 15765.51875 7280.703125 15913.682813 7193.398438 16411.885938 C 7106.054688 16910.089063 7396.171875 16878.214063 7995.9375 17037.510938 C 8595.742188 17196.885938 9165.820312 17311.6125 9676.210938 17594.698438 C 10186.601562 17877.901563 10605.3125 18103.995313 10605.3125 18103.995313 C 10605.3125 18103.995313 10483.28125 18646.807813 11102.695312 18964.89375 C 11722.109375 19282.901563 12879.101562 20005.596875 12879.101562 20005.596875 C 12879.101562 20005.596875 13394.804688 21071.495313 14401.015625 21999.190625 C 15407.109375 22926.885938 15534.101562 23016.885938 15534.101562 23016.885938 C 15534.101562 23016.885938 15605.78125 22240.909375 15604.21875 21622.589063 C 15655.3125 21659.698438 15707.617188 21696.495313 15760.78125 21732.784375 C 16891.71875 22503.4875 17030.390625 22573.995313 17030.390625 22573.995313 C 17030.390625 22573.995313 16965.703125 21383.917188 16822.382812 20790.9875 C 16796.40625 20683.682813 16773.59375 20594.385938 16753.515625 20520.089063 Z M 16753.515625 20520.089063 " transform="matrix(0.1, 0, 0, -0.1, 0, 2834.88)"/>
</svg>
